<?xml version="1.0" encoding="utf-8"?>
<!-- Generator: Adobe Illustrator 22.0.1, SVG Export Plug-In . SVG Version: 6.00 Build 0)  -->
<svg version="1.1" id="Слой_1" xmlns="http://www.w3.org/2000/svg" xmlns:xlink="http://www.w3.org/1999/xlink" x="0px" y="0px"
	 viewBox="0 0 965 1280" style="enable-background:new 0 0 965 1280;" xml:space="preserve">
<style type="text/css">
	.st0{display:none;}
	.st1{display:inline;fill:#FFFFFF;stroke:#000000;stroke-width:7;stroke-miterlimit:10;}
	.st2{fill:#FFFEFE;}
	.st3{fill:#FFFE05;stroke:#000000;stroke-width:7;stroke-miterlimit:10;}
	.st4{stroke:#000000;stroke-width:7;stroke-miterlimit:10;}
	.st5{fill:#833F00;stroke:#000000;stroke-width:7;stroke-miterlimit:10;}
	.st6{fill:#BEBFBE;stroke:#000000;stroke-width:7;stroke-miterlimit:10;}
	.st7{fill:#808080;stroke:#000000;stroke-width:7;stroke-miterlimit:10;}
	.st8{fill:none;stroke:#000000;stroke-width:7;stroke-linecap:round;stroke-miterlimit:10;}
	.st9{fill:#808080;stroke:#000000;stroke-width:7;stroke-linecap:round;stroke-linejoin:round;stroke-miterlimit:10;}
	.st10{fill:none;stroke:#000000;stroke-width:4;stroke-linecap:round;stroke-linejoin:round;stroke-miterlimit:10;}
	.st11{fill:#FFFEFE;stroke:#000000;stroke-width:7;stroke-miterlimit:10;}
</style>
<g id="Слой_1_1_">
	<g id="Слой_3" class="st0">
		<rect x="-1116.6" y="-163.7" class="st1" width="1058" height="1442"/>
		<rect x="1017" y="-161.4" class="st1" width="1058" height="1442"/>
	</g>
	<g>
		<path class="st2" d="M124.3,588.1c1.8-18.5,3.9-38.8,6.2-55.5l2.8-20.9l-9.4,18.8c-6.8,13.5-12.9,26.7-18.2,39.5
			c6.2-24.9,12.6-44.2,19-57.7c2.3-4.8,4.9-10.5,7.7-16.4c5.8-12.3,12.3-26.2,16.9-35.1l0,0c0,0,0.2-0.3,0.4-0.8
			c3.2-6.5,18.7-40.9,7.5-78.9c-8.9-30.3-16.8-82.7-1.8-103.2c3.9-5.3,8.9-8,15.5-8.1c32.3-0.8,81.2-47.4,98.3-64.8v34.7v0.1
			c0.1,0.9,1.3,21.5-23.6,28c-9.7,2.6-19.6,4.2-29.1,5.8c-27.5,4.6-53.5,8.9-55.2,36c-1.1,18.5,3.8,35.4,8.6,51.9
			c1.2,4.1,2.4,8.3,3.5,12.5c2.1,7.9,4.6,18.4,5.3,29.8c1.8,31.1-4.2,56.2-5.1,59.6c-4,10.9-9,20.9-14.4,31.5
			c-6.7,13.3-14.3,28.5-20.9,47.7C132.5,559.8,127.9,575.1,124.3,588.1z"/>
		<path d="M265.7,213.4v26.1v0.3v0.3c0,0,0.3,4.6-2,9.7c-3.1,7.2-9.5,12.1-19,14.6c-9.6,2.5-19.3,4.1-28.8,5.7
			c-14.2,2.4-27.5,4.6-37.9,9.6c-12.8,6.2-19.4,15.9-20.2,29.6c-1.2,19.1,3.9,36.4,8.7,53.1c1.2,4.1,2.4,8.3,3.5,12.4
			c2.1,7.7,4.5,18.1,5.2,29.1c1.8,30.1-4,54.4-4.9,58.3c-3.9,10.6-8.9,20.5-14.1,31c-6.7,13.4-14.4,28.7-21.1,48.2
			c-1.2,3.6-2.4,7.2-3.6,10.6c0.8-6.6,1.6-13,2.4-19l5.7-41.7l-15.3,30.5c1.2-2.9,2.4-5.6,3.5-8c2.3-4.8,5-10.5,7.7-16.5
			c5.7-12.3,12.2-26.1,16.8-34.9c0.1-0.1,0.2-0.4,0.5-0.9c3.3-6.7,19.3-42.1,7.7-81.5c-10.5-35.7-14.9-82.9-2.4-100.1
			c3.2-4.4,7.3-6.5,12.8-6.7c17.3-0.5,40.7-12.9,69.5-37C250.4,228,259.1,219.8,265.7,213.4 M272.7,196.3c0,0-64,69-101.9,70
			s-28.9,75.2-16.9,115.8c10.9,37.2-4.6,71-7.3,76.4c-0.2,0.5-0.4,0.8-0.4,0.8c-6.9,13.1-17.5,36.6-24.7,51.6
			C104,547.4,92,616.6,90.5,623.6c1.7-6.1,10.3-39.3,36.5-91.4c-5.5,40.4-10.3,102.1-10.8,108.6c0.8-6.3,6.3-41,25.6-97
			c11.8-34.2,26-54.1,35.3-79.3c0,0,0,0,0-0.1c0.4-1.5,7.1-27.9,5.2-60.8c-0.6-10.7-2.8-20.8-5.4-30.5c-5.6-21.1-13.4-40.9-12-63.2
			c2-32.7,42.9-28.4,81.7-38.6c28.1-7.4,26.2-31.7,26.2-31.7L272.7,196.3L272.7,196.3z"/>
	</g>
	<g>
		<path class="st2" d="M838.8,588.1c-3.6-13-8.2-28.2-14.2-45.5c-6.6-19.3-14.2-34.4-20.9-47.7c-6.6-13.2-12.9-25.7-17.3-40.2
			c-0.1-4.5-0.2-34.3,6.2-64.9c2.2-10.6,5-20.2,8.2-28.4c6.3-16.2,3.2-34.8-8.8-52.3c-15.8-23.2-43.3-39.4-66.8-39.4
			c-0.8,0-1.7,0-2.5,0.1c-1.3,0.1-2.5,0.1-3.7,0.1c-10.6,0-17.9-2.5-21.8-7.4c-4.7-6-2.9-14-2.8-14.1l0.1-0.4v-0.4v-30.4l51.4,30.4
			c26.6,18.2,95.1,71,93.2,97.8c-0.4,5-3.3,8.8-9.1,11.7c-21.1,10.4-32.1,28.8-31.8,53.3c0.3,18.6,7.1,34.7,7.9,36.5l0.2,0.3
			c1.4,2.7,2.6,4.9,3.7,6.9l0.1,0.1l0.1,0.1c4.2,6.6,13,25.3,20.7,41.8c2.8,5.9,5.4,11.6,7.7,16.4c6.4,13.5,12.8,32.8,19,57.7
			c-6.2-14.9-12.7-28.5-18.2-39.5l-9.4-18.8l2.8,20.8C834.8,549.3,837,569.6,838.8,588.1z"/>
		<path d="M698,223.2l46,27.2c2.3,1.6,25.2,17.5,47.6,36.9c40.9,35.6,44.4,52.2,44,57.6c-0.2,2.5-1.2,5.8-7.2,8.8
			C785.1,375,791.9,423,802.8,448c0,0.1,0.1,0.2,0.2,0.3c0,0.1,0.1,0.2,0.1,0.2l0,0l0,0c1.3,2.6,2.6,4.9,3.7,7l0.1,0.2l0.1,0.2
			c4.1,6.4,13.2,25.8,20.5,41.4c2.8,5.9,5.4,11.6,7.7,16.4c1.2,2.5,2.4,5.2,3.6,8.1l-15.3-30.5l5.6,41.7c0.8,5.9,1.6,12.3,2.4,18.9
			c-1.1-3.4-2.3-6.9-3.6-10.5c-6.7-19.5-14.4-34.7-21.1-48.1c-6.5-12.9-12.6-25.2-16.9-39.1c-0.1-5.5,0-34.2,6.1-63.7
			c2.2-10.4,4.9-19.8,8.1-27.9c6.8-17.3,3.5-37-9.1-55.5c-16.5-24.1-45.1-40.9-69.7-40.9c-0.9,0-1.8,0-2.7,0.1
			c-1.2,0.1-2.4,0.1-3.5,0.1c-6.5,0-15-1.1-19-6.1c-3.5-4.4-2.3-10.6-2.2-11.1l0.2-0.7v-0.9L698,223.2 M691,210.9v36.5
			c0,0-6.5,25.8,28,25.8c1.2,0,2.5,0,3.9-0.1c0.8,0,1.6-0.1,2.4-0.1c38.5,0,88,46.9,72.4,86.9c-3.6,9.2-6.3,19.2-8.4,29
			c-6.9,33.2-6.3,65.2-6.3,66.2l0,0c8.9,29.8,25.2,50.3,38.4,88.5c19.3,56,24.7,90.7,25.5,97c-0.5-6.5-5.3-68.2-10.8-108.6
			c26.1,52.2,34.8,85.3,36.5,91.4c-1.5-7-13.5-76.2-31-112.7c-8.8-18.3-22.7-49.4-28.6-58.6c-1.2-2.1-2.4-4.4-3.6-6.8l0,0
			c0,0,0-0.1-0.1-0.1c-1.6-3.8-26-61.6,22.2-85.3c49.8-24.5-83.7-115.6-83.7-115.6L691,210.9L691,210.9z"/>
	</g>
	<g id="Слой_2_1_">
		<path class="st3" d="M195.6,391.9c0,0,9-42.6,38.9-83.1c29.9-40.6,91.1-92.1,250.4-92.1c158.7,0,215,50.3,242.7,77.2
			c0,0,42,43.2,54,126.3c0,0,17.7,89.5-4.2,219.2c-16.7,99.1-64.1,229.4-118.8,309.2C538.4,1123.7,485,1189.8,485,1189.8
			S308.8,963.4,259.4,846.3c-45.1-106.9-66.6-175-74.9-235.2C168.9,498.5,195.6,391.9,195.6,391.9z"/>
		<path class="st4" d="M226.2,406.1c0,0,5.9-42.6,33.9-80.2s76.6-79.2,226-79.2c145.7,0,185.2,36.4,219.3,66.3
			c0,0,34.9,34.6,44.8,117.8c0,0,19.2,87.4-5.6,207.3C721.8,748,674.8,870.5,622.9,946.3c-111.8,163.5-137.3,190.9-137.3,190.9
			S337.4,955.6,282,819.8c-21.6-53.1-49-123-63.8-208.9C201.4,513.1,226.2,406.1,226.2,406.1z"/>
		<g>
			<ellipse class="st3" cx="769.3" cy="576.5" rx="6.6" ry="6.5"/>
			<ellipse class="st3" cx="197.1" cy="576.5" rx="6.6" ry="6.5"/>
			<ellipse class="st3" cx="222.7" cy="703.2" rx="6.6" ry="6.5"/>
			<ellipse class="st3" cx="746" cy="703.2" rx="6.6" ry="6.5"/>
			<ellipse class="st3" cx="271.3" cy="834.6" rx="6.6" ry="6.5"/>
			<ellipse class="st3" cx="700.9" cy="834.6" rx="6.6" ry="6.5"/>
			<ellipse class="st3" cx="399.3" cy="1048.6" rx="6.6" ry="6.5"/>
			<ellipse class="st3" cx="568.9" cy="1050.9" rx="6.6" ry="6.5"/>
			<ellipse class="st3" cx="483.1" cy="1155.1" rx="6.6" ry="6.5"/>
			<ellipse class="st3" cx="483.9" cy="231.9" rx="6.6" ry="6.5"/>
			<ellipse class="st3" cx="607.7" cy="244.2" rx="6.6" ry="6.5"/>
			<ellipse class="st3" cx="362.5" cy="245.1" rx="6.6" ry="6.5"/>
		</g>
		<g>
			<polygon class="st5" points="213.1,1166.8 788.7,176.2 816.9,192.4 241.3,1183 			"/>
			<polygon class="st5" points="295.5,446 323.6,429.8 751.9,1166.9 723.7,1183 			"/>
			<path class="st6" d="M7.1,310.9c0,0,17.1,9.6,24.4,12.2C38.8,325.6,201.8,620,201.8,620s0,19.3,0,31.7
				C197.3,647.8,40.4,559.3,7.1,310.9z"/>
			<path class="st7" d="M173.9,286.1c-1.9-1.3-103.6-260-103.6-260l177.8,218c0,0,12,76.7,36.9,113.8c0,0,38.4-25.2,46.8-64.8
				c0,0,48.3,11.9,45.3,79.7c0,0-38.4-4-73.2,15.8l22.4,39.9L291.9,447L271,409.3c0,0-76.7,86.1-62.3,177.7c0,0-7,29.7-7,32.7
				c0,0-134-107.4-170.3-296.9c0,0,21.2,7.9,31.4,8.3c0,0,79.7,85.6,188.8,43.1C251.6,374.2,226.2,320.8,173.9,286.1z"/>
			<line class="st8" x1="233.2" y1="302.6" x2="80.9" y2="44.3"/>
			<path class="st6" d="M660,520.2v-22.8c0,0,321.8-123.7,263-407.8l1-45.3l12-18.1C936,26.2,1077.4,397.5,660,520.2z"/>
			<path class="st7" d="M755.4,226.6l-39.2,62.7c0,0,98.3,46.2,81.7,91.1S647.8,496.5,647.8,496.5l4,10.6
				c0,0,369.3-83.8,275.6-468.5l-20.3,5.7C907.1,44.3,928,357.9,755.4,226.6z"/>
		</g>
		<g>
			<path class="st6" d="M354.9,427.9L253.3,587.6l39.8,245c0,0,41.8-49.4,139.5-65.2c0,0-14.4-159.1,7.5-223.4s41.4-99.4,41.4-99.4
				L354.9,427.9z"/>
			<path class="st7" d="M644.4,656c0,0,12,80,17.9,93.2c6,13.2-93.6,11.2-93.6,11.2s-45.8-23.1-47.8-23.8s9.3-73.9,7.3-74.5
				C526.2,661.5,644.4,656,644.4,656z"/>
			<path class="st3" d="M346.7,386.7l4.7,43.5l123,13.6l11.2-22.6c1-2.1-1.7-3.9-3.3-2.2l-2.5,2.8l-17.4-38.1l-28.9,35.6l-14.7-23.8
				L401,415.3l-9.5-44l-22.9,35.6L346.7,386.7z"/>
			<polygon class="st3" points="385.8,401.2 380.7,406.7 383.5,417 388.6,409 			"/>
			<polygon class="st3" points="454.7,415.4 459.1,409.5 462.3,416.2 457,424.5 			"/>
			<path class="st3" d="M351.2,432.3L246.6,590.2l43.1,223.7c0,0,4-38.9,37.9-64c0,0-43.1-53.5-50.5-129.4l89.7,3.9
				c0,0,23.2,1.5,26.6,5.4l29.2-22.5v-21.8c0,0-16.6-8.6-22.6-17.8c0,0-22.9,6.6-32.5,6.5l-78.5-1.9c0,0,31.2-65,63.1-86.6
				c0,0-5-29-0.7-53.3C351.6,432.3,351.3,432.2,351.2,432.3z"/>
			<path class="st6" d="M511.3,307.3c0,0-8.3,89.6-36.9,136.4C446.8,489,429.6,552.3,424,592.3c-5.9,42.1,0,101.6,0,101.6l120.2-9.6
				l20.9-28.2c0,0,99.6-36.1,136.5,0s5,4.5,5,4.5s2-46.5-57.8-150.5l-10-24.3C638.8,485.8,554.1,401.5,511.3,307.3z"/>
			<path class="st7" d="M546.2,680.6c0,0,33.9,112.2,44.5,124c0,0-2.7,9.2-41.1,9.9c-38.6,0.7-78.4-11.2-125.5,4.7
				c0,0,10.7-17.8,5.3-60.1c-5.3-42.3-5.3-65.3-5.3-65.3L546.2,680.6z"/>
			<path class="st7" d="M281.2,584.6c0,0-13.5,0.2-10,11.9c3.7,12,33.1,7.6,121.2,12c0,0,10-5.3,2-13.3
				C386.1,586.8,344.2,590.8,281.2,584.6z"/>
			<path class="st3" d="M692.9,682c0,0,18.6,51.5-6,106.9l37.9,25.7c0,0,3.3-18.5,8-29.7c0,0-7.3-75.2-4.7-98.3
				c4.1-35.2-12.1-141.7-100-214.9c0,0,5.1,18.3-14.8,38.7c0,0,61.8,33.7,78.4,124.7c0,0-49.1-21.1-112.3,2.7
				c0,0-25.7,11.5-46.5,14.6c0,0,10.2,18.3,13.2,28.4C546.2,680.6,665,625.8,692.9,682"/>
			<g>
				<path class="st9" d="M433.6,708.7c-0.3,1,10.3,13.6,17.2-1.7c0,0,8.7,14.8,15.6-1.7c0,0,9.7,11.9,16.6-2.7c0,0,9,13.2,15.6-3
					c0,0,7.3,14.8,15.2,0c0,0,9.7,11.2,15.6-3.3"/>
				<path class="st9" d="M440.1,741.7c-0.3,1,10.3,13.6,17.2-1.7c0,0,8.7,14.8,15.6-1.7c0,0,9.7,11.9,16.6-2.7c0,0,9,13.2,15.6-3
					c0,0,7.3,14.8,15.2,0c0,0,9.7,11.2,15.6-3.3"/>
				<path class="st9" d="M441.9,774.8c-0.3,1,10.3,13.6,17.2-1.7c0,0,8.7,14.8,15.6-1.7c0,0,9.7,11.9,16.6-2.7c0,0,9,13.2,15.6-3
					c0,0,7.3,14.8,15.2,0c0,0,9.7,11.2,15.6-3.3"/>
				<path class="st9" d="M449.9,792.8c-0.3,1,10.3,13.6,17.2-1.7c0,0,8.7,14.8,15.6-1.7c0,0,9.7,11.9,16.6-2.7c0,0,9,13.2,15.6-3
					c0,0,7.3,14.8,15.2,0c0,0,9.7,11.2,15.6-3.3"/>
				<path class="st9" d="M445.2,725.1c0,0,9.5,12.8,16.2-2.7c0,0,10.5,12.4,16.9-2.7c0,0,6.9,11.6,15.6-1.7c0,0,9.7,11.9,15.8-1.9
					c0,0,6.1,15.7,15.3-0.1"/>
				<path class="st9" d="M456,757.7c0,0,9.5,12.8,16.2-2.7c0,0,10.5,12.4,16.9-2.7c0,0,6.9,11.6,15.6-1.7c0,0,8.1,13.4,16-3.2
					c0,0,5.9,17,15.1,1.2"/>
				<path class="st9" d="M568.1,691.9c0,0,9.3,13.6,15.6-4c0,0,10,10.6,15.6-4c0,0,10.7,12.2,15.6-3.7"/>
				<path class="st9" d="M566.1,709c0,0,9.2,11.3,15.2-3.6c0,0,9.2,10.3,14.9-4.4c0,0,10,12.3,14.2-4.3c0,0,10,11.9,15.6-2.4"/>
				<path class="st9" d="M579.3,721.6c0,0,9.3,13.6,15.6-4c0,0,10,10.6,15.6-4c0,0,10.7,12.2,15.6-3.7"/>
				<path class="st9" d="M576.1,740.6c0,0,9.3,11.5,15.6-3.4c0,0,9.3,10.4,15.3-4.3c0,0,10.1,12.5,14.6-4.2c0,0,10.1,12,15.9-2.2"/>
			</g>
			<g>
				<ellipse class="st10" cx="307.8" cy="578.3" rx="4.1" ry="4.1"/>
				<ellipse class="st10" cx="351.4" cy="580.7" rx="4.2" ry="4.2"/>
				<ellipse class="st10" cx="392.1" cy="580.7" rx="4.4" ry="4.4"/>
				<ellipse class="st10" cx="411.7" cy="597.6" rx="4.4" ry="4.4"/>
				<ellipse class="st10" cx="392.1" cy="618" rx="4.4" ry="4.4"/>
				<ellipse class="st10" cx="351.4" cy="615.1" rx="4.4" ry="4.4"/>
				<ellipse class="st10" cx="307.8" cy="613.7" rx="4.4" ry="4.4"/>
				<ellipse class="st10" cx="260" cy="592.2" rx="4.4" ry="4.4"/>
				<ellipse class="st10" cx="329.7" cy="485.7" rx="4.4" ry="4.4"/>
				<ellipse class="st10" cx="307.8" cy="516.6" rx="4.4" ry="4.4"/>
				<ellipse class="st10" cx="284.9" cy="552.3" rx="4.4" ry="4.4"/>
				<ellipse class="st10" cx="267.6" cy="636.5" rx="4.4" ry="4.4"/>
				<ellipse class="st10" cx="275" cy="676.1" rx="4.4" ry="4.4"/>
				<ellipse class="st10" cx="295.8" cy="755.3" rx="4.4" ry="4.4"/>
				<ellipse class="st10" cx="284.9" cy="718.5" rx="4.4" ry="4.4"/>
			</g>
		</g>
	</g>
</g>
<g id="Слой_2_2_">
	<path class="st11" d="M692.2,183.5c0,0,90-65,89.3-62.8c-0.7,2.3,0,63.4,0,63.4l-87.1,62.2L692.2,183.5z"/>
	<path class="st11" d="M181.8,188.1c0,0,80.3,63.1,83.9,64.2c5.9,1.9,7-60.1,7-60.1l-90.9-65L181.8,188.1L181.8,188.1z"/>
	<g>
		<path class="st11" d="M782,960.4c0,0-89,58.2-86.1,84.9l-0.1-84.9l84.6-62.2c0.7-0.5,1.6,0,1.6,0.9V960.4z"/>
		<path class="st11" d="M182.3,901.1v62c0,0,87,61.3,86,79.3l3.2-69.2L182.3,901.1z"/>
		<path class="st11" d="M182.3,961.4V898c0,0,307.8,67.3,599.7,0v63.4C782,961.4,529,1029.7,182.3,961.4z"/>
		<g>
			<path class="st2" d="M761.3,1214.4c-4.1-12.9-9.3-27.9-15.9-44.9c-7.4-19-15.6-33.8-22.8-46.9c-10.1-18.4-18.9-34.3-23.7-57.1
				c-0.9-4.4-1.7-9.1-2.4-13.8c-2.4-17.7-1.9-33.6-0.8-45.5c0.2,0.6,0.4,1.2,0.6,1.8c2.7,8.9,6.4,21.1,10.7,33.3
				c2.7,7.6,12.1,26.9,20.2,40.3l0.1,0.1l0.1,0.1c4.5,6.4,14,24.8,22.3,41c3,5.8,5.9,11.3,8.3,16c7,13.2,14.1,32.3,21.3,56.9
				c-5.8-12.5-12.4-25.5-19.7-38.7l-10.2-18.4l3.6,20.7C755.9,1175.8,758.8,1195.9,761.3,1214.4z"/>
			<path d="M698.4,1026.4c1.6,5.1,3.4,10.5,5.3,15.9c2.7,7.8,12.3,27.4,20.6,40.9l0.1,0.2l0.1,0.2c4.3,6.2,14.2,25.3,22.1,40.6
				c3,5.8,5.9,11.4,8.4,16.1c1.3,2.4,2.6,5,3.9,7.9l-16.5-29.9l7.3,41.5c1,5.9,2.1,12.3,3.1,18.8c-1.3-3.4-2.6-6.9-4-10.4
				c-7.5-19.2-15.7-34.1-23-47.3c-10-18.1-18.7-33.8-23.3-56.2c-0.9-4.3-1.7-8.9-2.3-13.5C698.9,1042.3,698.4,1034,698.4,1026.4
				 M693.8,982.6c-0.5,2.6-0.2,11.7-0.7,15.1l0,0c-1.8,13.6-2.9,32.7-0.1,54.3c0.6,4.6,1.4,9.3,2.4,14.1
				c8.5,40.3,29.3,59.9,46.6,104.6c21.5,55.2,28.2,89.7,29.3,95.9c-0.8-6.5-8-67.9-15-108.1c28.2,51.1,38.1,83.9,40,90
				c-1.8-6.9-16.4-75.6-35.4-111.5c-9.5-18-24.7-48.5-30.9-57.4c-8.1-13.3-17.4-32.5-19.9-39.6c-5.9-16.8-10.8-34.1-13.1-41.3
				L693.8,982.6L693.8,982.6z"/>
		</g>
		<g>
			<path class="st2" d="M205.8,1214.3c2.5-18.4,5.4-38.6,8.3-55.2l3.6-20.7l-10.2,18.4c-7.3,13.2-13.9,26.2-19.7,38.7
				c7.2-24.6,14.3-43.7,21.3-56.9c2.5-4.7,5.3-10.2,8.3-16c8.4-16.2,17.9-34.6,22.3-41l0.1-0.1l0.1-0.1
				c8.1-13.4,17.6-32.6,20.2-40.3c4.3-12.2,8-24.4,10.7-33.3c0.2-0.6,0.4-1.2,0.6-1.8c1.1,11.9,1.5,27.9-0.8,45.5
				c-0.6,4.7-1.4,9.4-2.4,13.8c-4.8,22.9-13.6,38.7-23.7,57.1c-7.2,13.1-15.4,27.9-22.8,46.9
				C215.1,1186.4,209.9,1201.5,205.8,1214.3z"/>
			<path d="M268.7,1026.4c0,7.6-0.5,15.9-1.7,24.7c-0.6,4.6-1.4,9.2-2.3,13.6c-4.7,22.3-13.3,38-23.3,56.2
				c-7.3,13.2-15.5,28.1-23,47.3c-1.4,3.6-2.7,7-4,10.4c1-6.6,2.1-12.9,3.1-18.8l7.3-41.5l-16.5,29.9c1.3-2.8,2.6-5.4,3.9-7.9
				c2.5-4.7,5.3-10.2,8.4-16.1c7.9-15.3,17.7-34.4,22.1-40.6l0.1-0.2l0.1-0.2c8.3-13.6,17.8-33.1,20.6-40.9
				C265.3,1036.9,267.1,1031.5,268.7,1026.4 M273.3,982.6l-3.3,16.2c-2.3,7.2-7.2,24.5-13.1,41.3c-2.5,7.1-11.8,26.3-19.9,39.6
				c-6.2,8.9-21.4,39.4-30.9,57.4c-18.9,35.9-33.6,104.5-35.4,111.5c1.9-6,11.8-38.8,40-90c-7.1,40.2-14.3,101.6-15,108.1
				c1.1-6.3,7.9-40.8,29.3-95.9c17.4-44.7,38.2-64.2,46.6-104.6c1-4.8,1.8-9.5,2.4-14.1c2.9-21.7,1.8-40.8-0.1-54.3l0,0
				C273.5,994.3,273.7,985.2,273.3,982.6L273.3,982.6z"/>
		</g>
		<path class="st11" d="M181.8,120.7v63.4c0,0,307.8-67.3,599.7,0v-63.4C781.5,120.7,528.5,52.4,181.8,120.7z"/>
	</g>
</g>
<g id="Слой_3_1_">
</g>
<g>
	<path d="M311.8,145.7c0,0.3-0.1,0.7-0.5,1.2c-3.3,4.4-8,7-14.3,7.7c-6.4,0.8-11.8-0.6-16.2-4c-4.3-3.3-6.8-7.8-7.5-13.4
		c-0.7-5.5,0.7-10.4,4-14.7c3.5-4.5,8.2-7.1,14.3-7.8c6.6-0.8,12,0.4,16.2,3.6c0.5,0.4,0.7,0.7,0.7,1c0,0.3-0.5,1.7-1.7,4.1
		c-1.2,2.4-1.9,3.7-2.2,4c-0.1,0.2-0.3,0.3-0.6,0.3c-0.1,0-0.7-0.3-1.7-0.9c-1.2-0.7-2.4-1.3-3.5-1.7c-1.7-0.5-3.4-0.7-5.1-0.5
		c-3,0.4-5.3,1.6-6.8,3.8c-1.4,2-2,4.4-1.7,7.1c0.3,2.8,1.4,5,3.3,6.6c2,1.8,4.6,2.5,7.6,2.2c1.8-0.2,3.4-0.8,4.9-1.6
		c1-0.6,2-1.3,3-2.3c0.8-0.8,1.3-1.2,1.4-1.2c0.2,0,0.4,0.1,0.6,0.2c0.4,0.3,1.4,1.3,3.1,3.1C310.9,144.4,311.8,145.5,311.8,145.7z"
		/>
	<path d="M364.7,146.8c0,0.1-0.2,0.2-0.6,0.3c-0.8,0.2-2.7,0.4-5.9,0.7c-2.7,0.2-4.5,0.3-5.5,0.3c-0.5,0-0.7,0-0.8-0.1
		c-0.1,0-0.3-0.2-0.5-0.5c-0.4-0.7-0.9-1.7-1.6-3c-1-1.7-2.4-4.3-4.4-7.7c-0.4-0.7-1.3-1-2.7-0.9c0.6,0-0.4,0.1-3.2,0.3
		c-0.3,0-0.4,0.5-0.3,1.4c0.1,1.2,0.4,3.1,0.9,5.5c0.5,2.4,0.8,4.3,0.9,5.5c0,0.3,0,0.5-0.2,0.6c-0.3,0-0.6,0.1-0.9,0.1
		c-1.2,0.2-3.1,0.4-5.6,0.6c-2.9,0.3-4.7,0.4-5.3,0.3c-0.6-0.1-0.9-0.3-1-0.8c-0.2-2-0.3-5-0.5-9.1s-0.3-7.1-0.5-9.1
		c-0.7-7.7-1.4-13.7-2.1-17.9l-0.1-0.4c0-0.3,0.3-0.5,0.9-0.7c0.7-0.2,3.8-0.5,9.4-1.1c3.8-0.4,6.8-0.7,9.1-0.9
		c4.7-0.4,8.6,0.2,11.7,1.8c3.5,1.8,5.5,4.7,5.8,8.7c0.2,2.7,0,4.8-0.7,6.5s-2.2,3.3-4.4,5c-0.4,0.3-0.7,0.6-0.6,0.9
		c0,0,1.4,2.2,4.3,6.5C363.2,143.9,364.7,146.3,364.7,146.8z M349.7,123.5c-0.2-2.2-1.1-3.7-2.9-4.4c-1.3-0.5-3.3-0.7-6-0.5
		c-1.9,0.2-3,0.5-3,1.1c-0.1,0.6,0,2.4,0.3,5.4c0,0.4,0.1,1,0.2,1.8s0.2,1.4,0.2,1.8c0,0.1,0.3,0.2,1,0.2c1.3,0.1,2.6,0,4-0.1
		C347.9,128.4,350,126.6,349.7,123.5z"/>
	<path d="M411.6,135.7c0,0.8,0,2.2-0.3,4.3c-0.2,2.3-0.5,3.7-0.8,4.1c-0.2,0.4-0.6,0.6-1,0.6c-0.2,0-0.5,0-0.9,0
		c-1.5-0.1-5.9,0.1-13.1,0.5c-1.6,0.1-3.9,0.2-7.1,0.4c-3.1,0.2-5.5,0.3-7,0.4c-0.7,0-1-0.2-1.1-0.7c-0.1-2-0.2-5.1-0.1-9.2
		c0-4.1,0-7.2-0.1-9.2c-0.1-2.1-0.5-5.9-1-11.6c-0.1-1.5-0.4-3.6-0.7-6.5l-0.1-0.4c-0.1-0.4,0.2-0.6,0.7-0.7
		c1.5-0.1,3.8-0.2,6.9-0.3c3.1-0.1,5.3-0.2,6.9-0.3c1.5-0.1,3.8-0.3,6.8-0.5c3-0.2,5.3-0.4,6.8-0.5c1.1-0.1,1.7,0.3,1.9,1
		c0.1,0.4,0.4,1.7,0.7,3.8c0.3,2.1,0.5,3.4,0.5,3.8c0,0.4-0.2,0.6-0.6,0.6c-0.1,0-0.3,0-0.6,0c-5.5-0.1-10.4,0-14.7,0.2
		c-1.1,0.1-1.7,0.3-2,0.8c-0.1,0.2-0.1,0.9,0,2.1c0.1,1.2,0.3,2,0.8,2.4c0.4,0.3,1,0.5,2,0.4c0.2,0,0.6,0,1.2-0.1
		c0.6-0.1,1.1-0.1,1.5-0.1c2.6-0.1,5.2-0.4,7.8-0.6c0.2,0,0.8-0.1,1.7-0.2c0.7-0.1,1.2-0.2,1.7-0.2c0.5,0,0.8,0.2,0.8,0.6
		c0-0.4-0.1,1-0.3,4.2c-0.1,1.5-0.1,2.9,0,4.4c0,0.4-0.3,0.6-0.9,0.6l-2.8-0.1c-1.2,0-3.8,0.1-8,0.3l-3.3,0.2
		c-0.8,0-1.3,0.3-1.4,0.6c0,0.1,0,0.7,0.1,1.7c0.1,1.4,0.2,2.3,0.5,2.7c0.4,0.7,1.7,1,4,1c0,0,1.5-0.1,4.5-0.3
		c1.1-0.1,2.7-0.2,4.8-0.5c2.1-0.3,3.7-0.5,4.8-0.5C411.3,134.7,411.6,135,411.6,135.7z"/>
	<path d="M468.2,122.9c0.1,5.4-1.7,10.1-5.4,14.1c-3.3,3.6-8.1,5.6-14.3,5.9c-1.2,0.1-4.5,0.2-9.8,0.3c-1,0-2.5,0-4.5,0
		c-2,0-3.5,0-4.5,0c-0.6,0-0.9-0.2-0.9-0.6c-0.1-2,0-5,0-9c0.1-4,0.1-7,0-9c-0.1-2.1-0.2-5.2-0.5-9.4c-0.3-4.2-0.5-7.3-0.5-9.4
		c0-0.4,0.3-0.6,0.9-0.7c1.5-0.2,3.8-0.3,7.2-0.4c6.3-0.2,10.4-0.2,12.3-0.1c4.9,0.3,8.7,1.3,11.5,3c2.6,1.6,4.7,3.8,6.3,6.7
		C467.3,117.1,468.1,120,468.2,122.9z M456.4,123.2c-0.1-3.1-1.2-5.6-3.3-7.5c-2.2-2-5-2.9-8.4-2.8c-3.2,0.1-4.7,0.5-4.7,1.2
		c0,1.1,0.1,2.7,0.1,4.9c0,2.2,0,3.8,0.1,4.9c0,1.1,0.1,2.6,0.2,4.8c0.1,2.1,0.2,3.7,0.2,4.8c0,0.8,1.7,1.1,5,1
		c3.6-0.1,6.3-1.2,8.3-3.4C455.6,129.1,456.5,126.5,456.4,123.2z"/>
	<path d="M517.5,133.8c0,0.8-0.2,2.2-0.5,4.3c-0.4,2.3-0.7,3.6-1,4.1c-0.2,0.3-0.6,0.5-1,0.5c-0.2,0-0.5,0-0.9-0.1
		c-1.5-0.2-5.9-0.3-13.1-0.3c-1.6,0-3.9,0-7.1-0.1c-3.1,0-5.5-0.1-7-0.1c-0.7,0-1-0.3-1-0.8c0-2,0.2-5.1,0.4-9.2
		c0.3-4.1,0.4-7.2,0.4-9.2c0-2.1-0.1-6-0.3-11.6c-0.1-1.5-0.2-3.6-0.3-6.5l0-0.4c0-0.4,0.2-0.6,0.8-0.6c1.5,0,3.8,0.1,6.9,0.1
		c3.1,0.1,5.3,0.1,6.9,0.1c1.5,0,3.8,0,6.8-0.1c3-0.1,5.3-0.1,6.8-0.1c1.1,0,1.7,0.4,1.8,1.1c0.1,0.4,0.3,1.7,0.5,3.8
		c0.2,2.1,0.3,3.4,0.3,3.9c0,0.4-0.2,0.6-0.6,0.6c-0.1,0-0.3,0-0.6,0c-5.5-0.4-10.4-0.6-14.7-0.7c-1.1,0-1.8,0.2-2,0.7
		c-0.1,0.2-0.2,0.9-0.2,2.1c0,1.2,0.2,2.1,0.6,2.5c0.3,0.3,1,0.5,2,0.5c0.2,0,0.6,0,1.2,0c0.6,0,1.1,0,1.5,0c2.6,0,5.2,0,7.9-0.2
		c0.2,0,0.8-0.1,1.7-0.1c0.7-0.1,1.3-0.1,1.7-0.1c0.5,0,0.7,0.2,0.7,0.6c0-0.4-0.2,1-0.6,4.2c-0.2,1.5-0.3,2.9-0.3,4.4
		c0,0.4-0.3,0.5-0.9,0.5l-2.8-0.3c-1.2-0.1-3.8-0.2-8-0.2l-3.3,0c-0.8,0-1.3,0.2-1.5,0.5c0,0.1,0,0.7,0,1.7c0,1.4,0.1,2.3,0.3,2.7
		c0.3,0.7,1.7,1.1,3.9,1.2c0,0,1.5,0,4.5,0c1.1,0,2.7-0.1,4.9-0.2c2.1-0.2,3.8-0.2,4.8-0.2C517.3,132.8,517.5,133.2,517.5,133.8z"/>
	<path d="M576.5,106.7c-0.1,2.1-0.3,5.2-0.6,9.3c-0.4,4.2-0.6,7.3-0.6,9.4l-0.7,18c0,0.5-0.3,0.7-0.9,0.7c-0.5,0-1.2,0-2.2,0
		c-1,0-1.7,0-2.2,0c-0.5,0-1.3-0.1-2.4-0.2c-1.1-0.1-1.9-0.2-2.4-0.2c-0.4,0-0.8-0.3-1.3-1c-1.4-1.8-4.6-5.9-9.5-12.1
		c-1.4-1.7-3.4-4.3-6.2-7.7c-0.1-0.1-0.2-0.2-0.4-0.3c-0.2,0.1-0.3,0.3-0.3,0.6c-0.1,2.1-0.1,5.3-0.2,9.5c0,4.2-0.1,7.4-0.2,9.5
		c0,0.6-0.3,0.9-0.9,0.9l-10.7-0.4c-0.6,0-0.9-0.3-0.9-0.9c0.1-2,0.3-4.9,0.7-8.9c0.4-4,0.6-6.9,0.7-8.9c0.1-2.1,0.1-5.2,0.1-9.4
		c0-4.2,0-7.3,0.1-9.4c0-0.4,0.4-0.6,1.2-0.6c1.2,0,2.7,0,4.4-0.1c0.4,0,1.2-0.1,2.4-0.3c1-0.1,1.8-0.2,2.4-0.2c0.2,0,0.6,0.3,1.1,1
		l11,14.4c1,1.3,2.5,3.2,4.4,5.7c0.5,0.6,0.9,0.9,1.3,0.9c0.3,0,0.4-0.7,0.5-2.1c0.1-1.9,0.1-4.8,0-8.6c-0.1-3.9-0.1-6.7,0-8.7
		c0-0.7,0.3-1,0.7-1c1.2,0,3.1,0.1,5.6,0.1c2.5,0,4.3,0,5.6,0.1C576.3,105.8,576.5,106.1,576.5,106.7z"/>
	<path d="M634.7,128.9c-0.4,5.3-2.7,9.8-6.9,13.5c-3.7,3.2-8.6,4.7-14.8,4.4c-1.2-0.1-4.5-0.3-9.8-0.7c-1-0.1-2.5-0.2-4.5-0.4
		c-2-0.2-3.5-0.4-4.5-0.4c-0.6,0-0.9-0.3-0.8-0.7c0.2-2,0.5-5,0.9-9s0.8-7,0.9-9c0.2-2.1,0.3-5.2,0.5-9.4c0.1-4.2,0.3-7.3,0.5-9.4
		c0-0.4,0.3-0.6,0.9-0.6c1.5,0,3.9,0.1,7.2,0.3c6.3,0.5,10.4,0.9,12.2,1.2c4.8,0.8,8.5,2.2,11.2,4.1c2.5,1.8,4.3,4.3,5.6,7.3
		C634.4,123.1,634.9,126,634.7,128.9z M622.9,128c0.2-3.1-0.6-5.7-2.5-7.8c-1.9-2.2-4.6-3.4-8.1-3.7c-3.2-0.2-4.8,0-4.8,0.8
		c-0.1,1.1-0.2,2.7-0.4,4.8c-0.2,2.2-0.3,3.8-0.4,4.8c-0.1,1.1-0.2,2.6-0.3,4.8c-0.1,2.1-0.2,3.7-0.3,4.8c-0.1,0.8,1.5,1.3,4.8,1.5
		c3.5,0.3,6.4-0.6,8.6-2.5C621.5,133.8,622.6,131.3,622.9,128z"/>
	<path d="M694.9,135.9c-0.7,5.6-3.3,10.1-7.8,13.5c-4.6,3.4-10.1,4.7-16.4,4c-6.3-0.7-11.3-3.3-15-7.7c-3.6-4.3-5.1-9.3-4.5-14.9
		c0.7-5.6,3.3-10.1,7.8-13.5c4.6-3.4,10.1-4.8,16.4-4c6.3,0.7,11.3,3.3,15,7.7C694,125.3,695.5,130.3,694.9,135.9z M683.3,134.5
		c0.3-2.7-0.3-5.1-2-7.3c-1.7-2.2-4.1-3.5-7.1-3.9c-2.9-0.3-5.4,0.4-7.7,2.2c-2.2,1.8-3.4,3.9-3.7,6.5c-0.3,2.8,0.3,5.2,1.9,7.2
		c1.7,2.2,4.1,3.4,7.2,3.8c2.9,0.3,5.4-0.4,7.7-2.2C681.8,139.2,683,137,683.3,134.5z"/>
</g>
<g>
	<path d="M405,978.2c-2.7-0.1-4.2-0.2-4.6-0.3c-0.4-0.1-0.7-0.4-0.9-0.9c-2.1-4.6-4.1-9.1-6.2-13.7c-3.3-7.4-4.9-11.5-4.8-12.5
		c0.1-1.6,0.2-3.9,0.5-7.1c0.3-3.1,0.4-5.5,0.5-7.1c0-0.7,0.2-1.1,0.6-1.1c1.2,0.1,3,0.2,5.4,0.4c2.4,0.2,4.2,0.3,5.4,0.4
		c0.5,0,0.7,0.2,0.7,0.7c-0.1,1.6-0.3,4-0.7,7.2c-0.4,3.2-0.6,5.6-0.7,7.2c-0.1,1.2,1.8,5.7,5.4,13.4c1.2-1.9,2.5-4.3,4-7.1
		c2-3.8,3.1-6.1,3.1-6.9c0.1-1.4,0.1-3.6,0.2-6.5c0.1-2.9,0.2-5.1,0.2-6.5c0-0.5,0.1-0.8,0.3-0.9l1,0c1.1,0,2.7,0.1,5,0.1
		c2.2,0,3.9,0,5,0.1c0.6,0,0.9,0.3,0.9,0.8c-0.1,1.5-0.2,3.8-0.4,6.9c-0.2,3.1-0.3,5.4-0.4,6.9c-0.1,1.2-2.2,5.7-6.5,13.3
		c-1.7,2.7-4.1,6.9-7.3,12.4c-0.2,0.4-0.4,0.7-0.4,0.7c-0.1,0-0.3,0.1-0.8,0.1C408.6,978.3,407.1,978.3,405,978.2z"/>
	<path d="M452.5,957.7c-0.1,2.3-0.1,5.9-0.1,10.6c0,4.7,0,8.2-0.1,10.6c0,0.4-0.1,0.6-0.3,0.7c0,0-0.3,0.1-0.8,0.1
		c-1.3,0.1-3,0.2-5.2,0.1c-2.9-0.1-4.7-0.2-5.5-0.4c-0.6-0.1-0.9-0.4-0.8-0.9c0,0.3,0.1-1.4,0.4-5.2c0.6-8,0.9-13.3,0.9-15.8
		c0.1-2.1,0.1-5.3,0-9.6c0-4.2,0-7.4,0-9.6c0-0.4,0.2-0.6,0.7-0.6c0.6,0,1.5,0.1,2.8,0.2s2.2,0.1,2.8,0.2c0.6,0,1.5,0,2.7,0
		c1.2,0,2.1,0,2.7,0c0.6,0,0.9,0.2,0.8,0.7c-0.1,2.1-0.2,5.3-0.6,9.5C452.7,952.4,452.5,955.6,452.5,957.7z"/>
	<path d="M508.8,959c0,5.8-1.9,10.9-5.6,15.2c-3.3,3.8-8,5.8-14,6c-1.2,0-4.3,0.1-9.5,0c-1,0-2.4,0-4.4-0.1c-2-0.1-3.4-0.1-4.4-0.1
		c-0.6,0-0.9-0.2-0.9-0.7c0-2.2,0.1-5.5,0.3-9.8c0.2-4.4,0.3-7.6,0.3-9.8c0-2.3-0.1-5.7-0.2-10.2c-0.2-4.6-0.2-8-0.2-10.2
		c0-0.4,0.3-0.7,0.9-0.7c1.4-0.2,3.7-0.2,6.9-0.2c6.1,0,10.1,0.1,11.9,0.3c4.7,0.5,8.4,1.7,11,3.6c2.5,1.8,4.5,4.3,5.9,7.5
		C508.2,952.7,508.9,955.8,508.8,959z M497.5,959c0-3.4-1-6.1-3-8.2c-2-2.2-4.7-3.3-8-3.3c-3.1,0-4.6,0.4-4.6,1.2
		c0,1.2,0,2.9-0.1,5.3c0,2.3-0.1,4.1-0.1,5.3c0,1.2,0,2.9,0,5.2c0,2.3,0.1,4.1,0.1,5.2c0,0.9,1.6,1.3,4.8,1.3c3.4,0,6.1-1.1,8.1-3.4
		C496.5,965.4,497.4,962.5,497.5,959z"/>
	<path d="M564.5,978c0,0.4-0.2,0.6-0.7,0.8c-0.6,0.2-2.4,0.3-5.5,0.4c-2.8,0.1-4.7,0.1-5.5-0.1c-0.7-0.1-1.1-0.6-1.3-1.3
		c-0.8-2.8-1.3-4.3-1.7-4.5c-0.3-0.1-3-0.1-8,0c-3.4,0.1-5.2,0.2-5.4,0.4c-0.3,0.3-0.7,1.4-1,3.2c-0.3,1.7-0.8,2.6-1.3,2.7
		c-0.7,0.2-2.9,0.3-6.8,0.4c-3,0.1-4.6-0.2-4.6-0.7c0-0.5,2-6.9,6.2-19.2c4.5-13.3,6.9-20.6,7.3-21.9c0.2-0.8,0.5-1.1,0.8-1.2
		c0.5,0,1.4,0,2.5,0.1c1.1,0.1,2,0.1,2.5,0.1c0.5,0,1.3-0.1,2.4-0.2c1-0.1,1.8-0.2,2.3-0.2c0.4,0,0.7,0.3,1.1,0.9
		c1,2.1,4.1,9.1,9.1,21.2C561.9,971.1,564.5,977.4,564.5,978z M542.6,951.5c-0.4,0.9-1,2.8-1.9,5.7c-1,3.1-1.5,5-1.4,5.5
		c0,0.4,0.6,0.5,1.8,0.5c0.6,0,1.6,0,3,0c1.3,0,2-0.2,2.2-0.5c0-0.1,0.1-0.2,0-0.4c0-0.7-0.5-2.4-1.5-5.4
		C543.7,954.1,543,952.3,542.6,951.5z"/>
	<path d="M598.9,963.1c0.2,4-1.3,7.6-4.5,10.6c-2.8,2.7-6.3,4.5-10.6,5.5c-0.2,0-0.3,0-0.4,0.1c-0.5,0-1.5-1.3-3.3-4
		c-1.7-2.7-2.6-4.3-2.6-5c0-0.2,0.1-0.4,0.4-0.4c2.8-0.8,4.7-1.5,5.6-2c2-1.1,2.9-2.7,2.8-4.8c-0.1-1.3-0.8-2.7-2.3-4.2
		c-2.5-2.6-3.8-4-4.1-4.3c-1.5-2-2.3-4.2-2.4-6.7c-0.2-3.6,1.3-6.7,4.5-9.3c2.6-2.1,5.9-3.6,9.8-4.5c0.2,0,0.4-0.1,0.5-0.1
		c0.3,0,0.5,0.2,0.8,0.7c0.6,1.4,2,4,4.1,7.6c0.1,0.1,0.1,0.2,0.1,0.3c0,0.3-0.1,0.5-0.5,0.5c-0.2,0-0.4,0-0.8,0c-0.4,0-0.7,0-0.9,0
		c-1.4,0.1-2.7,0.5-3.7,1.2c-1.2,0.8-1.8,1.9-1.7,3.3c0.1,1.2,0.9,2.7,2.4,4.3c2.7,3,4.1,4.6,4.2,4.8
		C597.9,958.8,598.7,960.9,598.9,963.1z"/>
</g>
</svg>
